<?xml version="1.0" encoding="UTF-8"?>
<svg id="Logo" xmlns="http://www.w3.org/2000/svg" viewBox="0 0 800 800">
  <g>
    <g>
      <line x1="373.56" y1="330.91" x2="324.94" y2="379.53"/>
      <rect x="314.88" y="349.72" width="68.75" height="11" transform="translate(-148.89 351) rotate(-45)"/>
    </g>
    <polygon points="405.5 469.08 394.5 469.08 394.5 427.04 369.27 411.95 344.26 357.52 354.25 352.93 377.85 404.26 405.5 420.8 405.5 469.08"/>
  </g>
  <g>
    <g>
      <line x1="426.44" y1="330.91" x2="475.06" y2="379.53"/>
      <rect x="445.25" y="320.85" width="11" height="68.75" transform="translate(-119.16 422.77) rotate(-45)"/>
    </g>
    <polygon points="405.5 469.08 394.5 469.08 394.5 420.8 422.15 404.26 445.75 352.93 455.74 357.52 430.73 411.95 405.5 427.04 405.5 469.08"/>
  </g>
  <path d="m399.99,474.59c-.96,0-1.93-.25-2.82-.78l-26.44-15.81c-2.61-1.56-3.46-4.94-1.9-7.54,1.56-2.61,4.93-3.46,7.54-1.9l26.44,15.81c2.61,1.56,3.46,4.94,1.9,7.54-1.03,1.72-2.85,2.68-4.73,2.68Z"/>
  <path d="m400.01,474.59c-1.87,0-3.7-.96-4.73-2.68-1.56-2.61-.71-5.98,1.9-7.54l26.44-15.81c2.61-1.56,5.98-.71,7.54,1.9s.71,5.98-1.9,7.54l-26.44,15.81c-.88.53-1.86.78-2.82.78Z"/>
</svg>