<svg width="74" height="74" viewBox="0 0 74 74" fill="none" xmlns="http://www.w3.org/2000/svg">
<path d="M34.6875 56.2708H27.75C24.3583 56.2708 21.5833 59.0458 21.5833 62.4375V63.2083H18.5C17.2358 63.2083 16.1875 64.2566 16.1875 65.5208C16.1875 66.785 17.2358 67.8333 18.5 67.8333H55.5C56.7642 67.8333 57.8125 66.785 57.8125 65.5208C57.8125 64.2566 56.7642 63.2083 55.5 63.2083H52.4167V62.4375C52.4167 59.0458 49.6417 56.2708 46.25 56.2708H39.3125V49.21C38.5417 49.3025 37.7708 49.3333 37 49.3333C36.2292 49.3333 35.4583 49.3025 34.6875 49.21V56.2708Z" fill="#212121"/>
<path d="M56.9803 35.8898C59.0153 35.119 60.8036 33.8548 62.2219 32.4365C65.0894 29.2607 66.9703 25.4682 66.9703 21.0282C66.9703 16.5882 63.4861 13.104 59.0461 13.104H57.3194C56.3105 11.0261 54.7376 9.27373 52.7803 8.04702C50.823 6.82031 48.5602 6.16867 46.2503 6.1665H27.7503C22.8786 6.1665 18.6853 9.00317 16.6811 13.104H14.9544C10.5144 13.104 7.03027 16.5882 7.03027 21.0282C7.03027 25.4682 8.91111 29.2607 11.7786 32.4365C13.1969 33.8548 14.9853 35.119 17.0203 35.8898C18.631 39.8671 21.3938 43.2722 24.954 45.6676C28.5142 48.063 32.7092 49.3396 37.0003 49.3332C46.0653 49.3332 53.7736 43.7832 56.9803 35.8898ZM45.7569 26.054L43.8453 28.3973C43.5369 28.7365 43.3211 29.4148 43.3519 29.8773L43.5369 32.899C43.6603 34.749 42.3344 35.7048 40.6078 35.0265L37.8019 33.9165C37.2786 33.7623 36.7219 33.7623 36.1986 33.9165L33.3928 35.0265C31.6661 35.7048 30.3403 34.749 30.4636 32.899L30.6486 29.8773C30.6603 29.3418 30.486 28.8188 30.1553 28.3973L28.2436 26.054C27.0411 24.6357 27.5653 23.0632 29.3536 22.6007L32.2828 21.8607C32.7453 21.7373 33.3003 21.3057 33.5469 20.9048L35.1811 18.3765C36.1986 16.804 37.8019 16.804 38.8194 18.3765L40.4536 20.9048C40.7003 21.3057 41.2553 21.7373 41.7178 21.8607L44.6469 22.6007C46.4353 23.0632 46.9594 24.6357 45.7569 26.054Z" fill="#212121"/>
</svg>
